<svg version="1.1" viewBox="0.0 0.0 1024.0 768.0" fill="none" stroke="none" stroke-linecap="square" stroke-miterlimit="10" xmlns:xlink="http://www.w3.org/1999/xlink" xmlns="http://www.w3.org/2000/svg"><clipPath id="p.0"><path d="m0 0l1024.0 0l0 768.0l-1024.0 0l0 -768.0z" clip-rule="nonzero"/></clipPath><g clip-path="url(#p.0)"><path fill="#000000" fill-opacity="0.0" d="m0 0l1024.0 0l0 768.0l-1024.0 0z" fill-rule="evenodd"/><path fill="#000000" fill-opacity="0.0" d="m110.5538 196.2021l303.62204 0l0 96.94487l-303.62204 0z" fill-rule="evenodd"/><path fill="#000000" d="m187.44443 223.2671q-2.578125 0.84375 -5.046875 4.265625q-2.46875 3.421875 -2.46875 8.546875q0 2.1875 0.4375 3.09375q0.453125 0.890625 0.453125 2.3125q-8.84375 0 -8.84375 -6.8125q0 -4.3125 3.203125 -8.53125q3.21875 -4.21875 8.1875 -6.859375q4.96875 -2.640625 9.953125 -2.640625q2.546875 0 5.890625 1.203125l-2.5 34.421875l13.40625 -34.734375l11.046875 0l-7.0 49.10936l-11.25 0l5.25 -29.73436l-11.359375 29.73436l-10.484375 0l2.328125 -29.85936l-9.984375 29.85936l-7.265625 0l16.046875 -43.374985zm42.821045 43.624985q-5.109375 0 -8.171875 -2.703125q-3.0625 -2.703125 -3.0625 -8.406235q0 -4.5 1.84375 -10.0q1.859375 -5.515625 6.0625 -9.609375q4.203125 -4.109375 10.625 -4.109375q9.1875 0 9.1875 11.234375l-0.890625 0q0.25 -0.859375 0.59375 -0.859375q1.90625 0 4.515625 -1.0625q2.625 -1.0625 5.859375 -3.375l1.203125 3.578125q-2.40625 2.546875 -5.53125 4.0q-3.125 1.453125 -6.015625 1.90625q-0.453125 5.234375 -2.671875 9.79686q-2.203125 4.546875 -5.765625 7.078125q-3.5625 2.53125 -7.78125 2.53125zm2.5625 -7.75q1.078125 0 2.40625 -1.515625q1.328125 -1.53125 2.421875 -4.4374847q1.109375 -2.90625 1.46875 -5.59375q-1.609375 -0.359375 -1.609375 -3.453125q0 -3.296875 1.9375 -4.109375q-0.0625 -1.15625 -0.359375 -1.609375q-0.28125 -0.453125 -1.015625 -0.453125q-1.5625 0 -3.359375 2.78125q-1.796875 2.78125 -2.984375 6.9375q-1.171875 4.140625 -1.171875 7.265625q0 2.7812347 0.46875 3.4843597q0.46875 0.703125 1.796875 0.703125zm41.299072 7.890625q-4.359375 0 -6.46875 -2.390625q-2.09375 -2.40625 -2.09375 -5.84375q0 -1.4375 0.328125 -3.1874847q0.328125 -1.75 0.6875 -3.375q0.359375 -1.625 0.5 -2.078125q0.484375 -2.203125 0.921875 -4.328125q0.453125 -2.125 0.453125 -3.359375q0 -2.265625 -1.3125 -2.265625q-1.171875 0 -2.25 1.375q-1.0625 1.359375 -1.765625 3.765625l-4.515625 21.29686l-11.265625 0l7.21875 -33.999985l11.25 0l-0.34375 1.1875q1.15625 -1.4375 5.90625 -1.4375q3.640625 0 5.859375 2.078125q2.234375 2.0625 2.234375 6.140625q0 1.953125 -0.46875 4.296875q-0.453125 2.328125 -1.28125 5.625q-0.515625 1.96875 -0.921875 3.796875q-0.390625 1.8281097 -0.390625 2.7968597q0 0.921875 0.296875 1.3125q0.3125 0.375 1.25 0.375q1.453125 0 2.40625 -1.125q0.953125 -1.140625 2.296875 -4.4999847l4.765625 0q-2.921875 8.64061 -6.28125 11.249985q-3.34375 2.59375 -7.015625 2.59375zm18.898071 0q-4.078125 0 -6.796875 -2.796875q-2.71875 -2.796875 -2.71875 -8.51561q0 -4.90625 1.953125 -10.3125q1.953125 -5.421875 5.921875 -9.25q3.984375 -3.828125 9.5625 -3.828125q2.9375 0 4.5625 1.140625q1.625 1.125 1.625 3.109375l-1.0 0.453125l-0.109375 -4.390625l11.265625 0l-4.875 23.0q-0.21875 0.84373474 -0.21875 1.8124847q0 0.828125 0.296875 1.09375q0.296875 0.265625 1.328125 0.265625q0.65625 0 3.265625 -1.265625q-2.40625 6.125 -3.890625 7.8125q-1.484375 1.671875 -4.375 1.671875q-3.03125 0 -4.9375 -1.828125q-1.890625 -1.828125 -1.96875 -2.328125q-2.71875 4.15625 -8.890625 4.15625zm4.15625 -8.21875q1.1875 0 2.5 -1.25q1.328125 -1.265625 1.828125 -3.5937347l3.046875 -14.359375q0 -0.375 -0.390625 -0.84375q-0.375 -0.484375 -1.234375 -0.484375q-2.015625 0 -3.875 2.6875q-1.859375 2.6875 -2.96875 6.75q-1.109375 4.046875 -1.109375 7.109375q0 2.7812347 0.625 3.3906097q0.640625 0.59375 1.578125 0.59375z" fill-rule="nonzero"/><path fill="#000000" fill-opacity="0.0" d="m110.5538 198.51181l303.62204 0l0 96.944885l-303.62204 0z" fill-rule="evenodd"/><path fill="#e00000" d="m187.44443 225.57681q-2.578125 0.84375 -5.046875 4.265625q-2.46875 3.421875 -2.46875 8.546875q0 2.1875 0.4375 3.09375q0.453125 0.890625 0.453125 2.3125q-8.84375 0 -8.84375 -6.8125q0 -4.3125 3.203125 -8.53125q3.21875 -4.21875 8.1875 -6.859375q4.96875 -2.640625 9.953125 -2.640625q2.546875 0 5.890625 1.203125l-2.5 34.421875l13.40625 -34.734375l11.046875 0l-7.0 49.109375l-11.25 0l5.25 -29.734375l-11.359375 29.734375l-10.484375 0l2.328125 -29.859375l-9.984375 29.859375l-7.265625 0l16.046875 -43.375zm42.821045 43.625q-5.109375 0 -8.171875 -2.703125q-3.0625 -2.703125 -3.0625 -8.40625q0 -4.5 1.84375 -10.0q1.859375 -5.515625 6.0625 -9.609375q4.203125 -4.109375 10.625 -4.109375q9.1875 0 9.1875 11.234375l-0.890625 0q0.25 -0.859375 0.59375 -0.859375q1.90625 0 4.515625 -1.0625q2.625 -1.0625 5.859375 -3.375l1.203125 3.578125q-2.40625 2.546875 -5.53125 4.0q-3.125 1.453125 -6.015625 1.90625q-0.453125 5.234375 -2.671875 9.796875q-2.203125 4.546875 -5.765625 7.078125q-3.5625 2.53125 -7.78125 2.53125zm2.5625 -7.75q1.078125 0 2.40625 -1.515625q1.328125 -1.53125 2.421875 -4.4375q1.109375 -2.90625 1.46875 -5.59375q-1.609375 -0.359375 -1.609375 -3.453125q0 -3.296875 1.9375 -4.109375q-0.0625 -1.15625 -0.359375 -1.609375q-0.28125 -0.453125 -1.015625 -0.453125q-1.5625 0 -3.359375 2.78125q-1.796875 2.78125 -2.984375 6.9375q-1.171875 4.140625 -1.171875 7.265625q0 2.78125 0.46875 3.484375q0.46875 0.703125 1.796875 0.703125zm41.299072 7.890625q-4.359375 0 -6.46875 -2.390625q-2.09375 -2.40625 -2.09375 -5.84375q0 -1.4375 0.328125 -3.1875q0.328125 -1.75 0.6875 -3.375q0.359375 -1.625 0.5 -2.078125q0.484375 -2.203125 0.921875 -4.328125q0.453125 -2.125 0.453125 -3.359375q0 -2.265625 -1.3125 -2.265625q-1.171875 0 -2.25 1.375q-1.0625 1.359375 -1.765625 3.765625l-4.515625 21.296875l-11.265625 0l7.21875 -34.0l11.25 0l-0.34375 1.1875q1.15625 -1.4375 5.90625 -1.4375q3.640625 0 5.859375 2.078125q2.234375 2.0625 2.234375 6.140625q0 1.953125 -0.46875 4.296875q-0.453125 2.328125 -1.28125 5.625q-0.515625 1.96875 -0.921875 3.796875q-0.390625 1.828125 -0.390625 2.796875q0 0.921875 0.296875 1.3125q0.3125 0.375 1.25 0.375q1.453125 0 2.40625 -1.125q0.953125 -1.140625 2.296875 -4.5l4.765625 0q-2.921875 8.640625 -6.28125 11.25q-3.34375 2.59375 -7.015625 2.59375zm18.898071 0q-4.078125 0 -6.796875 -2.796875q-2.71875 -2.796875 -2.71875 -8.515625q0 -4.90625 1.953125 -10.3125q1.953125 -5.421875 5.921875 -9.25q3.984375 -3.828125 9.5625 -3.828125q2.9375 0 4.5625 1.140625q1.625 1.125 1.625 3.109375l-1.0 0.453125l-0.109375 -4.390625l11.265625 0l-4.875 23.0q-0.21875 0.84375 -0.21875 1.8125q0 0.828125 0.296875 1.09375q0.296875 0.265625 1.328125 0.265625q0.65625 0 3.265625 -1.265625q-2.40625 6.125 -3.890625 7.8125q-1.484375 1.671875 -4.375 1.671875q-3.03125 0 -4.9375 -1.828125q-1.890625 -1.828125 -1.96875 -2.328125q-2.71875 4.15625 -8.890625 4.15625zm4.15625 -8.21875q1.1875 0 2.5 -1.25q1.328125 -1.265625 1.828125 -3.59375l3.046875 -14.359375q0 -0.375 -0.390625 -0.84375q-0.375 -0.484375 -1.234375 -0.484375q-2.015625 0 -3.875 2.6875q-1.859375 2.6875 -2.96875 6.75q-1.109375 4.046875 -1.109375 7.109375q0 2.78125 0.625 3.390625q0.640625 0.59375 1.578125 0.59375z" fill-rule="nonzero"/><path fill="#000000" d="m321.49344 237.94489c5.25589 -15.322845 25.753937 0 0 19.700775c-25.753937 -19.700775 -5.2559204 -35.02362 0 -19.700775z" fill-rule="evenodd"/><path stroke="#000000" stroke-width="1.0" stroke-linejoin="round" stroke-linecap="butt" d="m321.49344 237.94489c5.25589 -15.322845 25.753937 0 0 19.700775c-25.753937 -19.700775 -5.2559204 -35.02362 0 -19.700775z" fill-rule="evenodd"/><path fill="#ff0000" d="m318.81628 241.4567c4.1404114 -12.585312 20.288055 0 0 16.181091c-20.288055 -16.181091 -4.140442 -28.766403 0 -16.181091z" fill-rule="evenodd"/><path stroke="#cc0000" stroke-width="1.0" stroke-linejoin="round" stroke-linecap="butt" d="m318.81628 241.4567c4.1404114 -12.585312 20.288055 0 0 16.181091c-20.288055 -16.181091 -4.140442 -28.766403 0 -16.181091z" fill-rule="evenodd"/></g></svg>